<svg width="74" height="73" viewBox="0 0 74 73" fill="none" xmlns="http://www.w3.org/2000/svg">
<rect opacity="0.5" x="10" y="9" width="64" height="64" rx="8" fill="#E1E3E6"/>
<rect width="64" height="64" rx="8" fill="url(#paint0_linear)"/>
<g clip-path="url(#clip0)">
<path d="M46.1135 33.3585C45.8386 32.6785 45.0644 32.3499 44.3844 32.6249C43.7044 32.8999 43.3759 33.674 43.6508 34.354L45.215 38.2232L40.5694 36.1753C40.2331 36.0271 39.8504 36.0248 39.5124 36.169C37.9248 36.8464 36.224 37.1899 34.4573 37.1899C27.347 37.1899 22.5706 31.6227 22.5706 26.4231C22.5706 20.4862 27.9029 15.6562 34.4573 15.6562C41.0117 15.6562 46.344 20.4862 46.344 26.4231C46.344 26.8863 46.3008 27.4409 46.2257 27.9446C46.1175 28.6701 46.6179 29.3459 47.3434 29.4542C48.0689 29.5627 48.7447 29.062 48.8529 28.3366C48.9479 27.6997 49.0003 27.0201 49.0003 26.4231C49.0003 22.8152 47.4725 19.43 44.6983 16.8909C41.9569 14.3818 38.3199 13 34.4573 13C30.5947 13 26.9578 14.3818 24.2163 16.8909C21.7373 19.1598 20.2545 22.1048 19.9669 25.2803C16.8487 27.3453 15.0003 30.6542 15.0003 34.2184C15.0003 36.4449 15.7017 38.5574 17.037 40.3754L15.0971 45.174C14.8945 45.6751 15.0158 46.2491 15.404 46.6253C15.6569 46.8706 15.9902 47 16.3287 47C16.5095 46.9999 16.6919 46.9631 16.8641 46.8871L22.4574 44.4215C23.8645 44.9452 25.3518 45.2104 26.8869 45.2104C26.9201 45.2104 26.9527 45.2078 26.9853 45.2054C29.2058 45.1886 31.3644 44.6045 33.234 43.5116C34.9087 42.5325 36.2862 41.1875 37.2519 39.5991C38.1948 39.4298 39.1164 39.174 40.0109 38.832L47.1364 41.9731C47.3087 42.049 47.491 42.0859 47.6718 42.0859C48.0103 42.0859 48.3436 41.9565 48.5966 41.7113C48.9847 41.335 49.106 40.7611 48.9034 40.26L46.1135 33.3585ZM26.8871 42.5507C26.8689 42.5507 26.8513 42.5527 26.8333 42.5534C25.4771 42.5465 24.1718 42.28 22.9528 41.7599C22.6149 41.6156 22.2322 41.6179 21.8959 41.7662L18.7856 43.1372L19.789 40.6553C19.9744 40.1965 19.8894 39.6726 19.5684 39.296C18.3176 37.8286 17.6565 36.0729 17.6565 34.2184C17.6565 32.096 18.5494 30.085 20.1115 28.5602C20.5979 31.2115 21.9701 33.7477 24.0402 35.74C26.6162 38.2191 30.0235 39.6554 33.7027 39.8283C31.9754 41.5286 29.5035 42.5507 26.8871 42.5507Z" fill="white"/>
<path d="M34.3906 27.8086C35.1241 27.8086 35.7187 27.214 35.7187 26.4805C35.7187 25.747 35.1241 25.1523 34.3906 25.1523C33.6571 25.1523 33.0625 25.747 33.0625 26.4805C33.0625 27.214 33.6571 27.8086 34.3906 27.8086Z" fill="white"/>
<path d="M39.7031 27.8086C40.4366 27.8086 41.0312 27.214 41.0312 26.4805C41.0312 25.747 40.4366 25.1523 39.7031 25.1523C38.9696 25.1523 38.375 25.747 38.375 26.4805C38.375 27.214 38.9696 27.8086 39.7031 27.8086Z" fill="white"/>
<path d="M29.0781 27.8086C29.8116 27.8086 30.4062 27.214 30.4062 26.4805C30.4062 25.747 29.8116 25.1523 29.0781 25.1523C28.3446 25.1523 27.75 25.747 27.75 26.4805C27.75 27.214 28.3446 27.8086 29.0781 27.8086Z" fill="white"/>
</g>
<defs>
<linearGradient id="paint0_linear" x1="3.2" y1="64" x2="59.8154" y2="64" gradientUnits="userSpaceOnUse">
<stop offset="0.222113" stop-color="#FF6A1C"/>
<stop offset="1" stop-color="#FD9100"/>
</linearGradient>
<clipPath id="clip0">
<rect width="34" height="34" fill="white" transform="translate(15 13)"/>
</clipPath>
</defs>
</svg>
