<svg width="74" height="73" viewBox="0 0 74 73" fill="none" xmlns="http://www.w3.org/2000/svg">
<rect opacity="0.5" x="10" y="9" width="64" height="64" rx="8" fill="#E1E3E6"/>
<rect width="64" height="64" rx="8" fill="url(#paint0_linear)"/>
<g clip-path="url(#clip0)">
<path d="M18.0102 31.7943L15.3741 34.5116C14.8644 35.0371 14.8771 35.8762 15.4026 36.386C15.6601 36.6359 15.9929 36.7601 16.3254 36.7601C16.6714 36.7601 17.0171 36.6254 17.277 36.3576L19.913 33.6402C20.4227 33.1147 20.41 32.2756 19.8845 31.7658C19.3591 31.256 18.5199 31.2688 18.0102 31.7943Z" fill="white"/>
<path d="M24.1461 32.6509C23.4141 32.6509 22.8206 33.2444 22.8206 33.9765V45.6413C22.8206 46.3733 23.414 46.9668 24.1461 46.9668H24.1462C24.8782 46.9668 25.4717 46.3734 25.4717 45.6413L25.4716 33.9764C25.4716 33.2444 24.8782 32.6509 24.1461 32.6509Z" fill="white"/>
<path d="M29.3158 29.7348C28.5838 29.7348 27.9902 30.3283 27.9902 31.0603V45.6413C27.9902 46.3733 28.5837 46.9668 29.3158 46.9668C30.0478 46.9668 30.6413 46.3733 30.6413 45.6413V31.0603C30.6412 30.3283 30.0478 29.7348 29.3158 29.7348Z" fill="white"/>
<path d="M45.0233 13.033H41.0467C40.3147 13.033 39.7212 13.6265 39.7212 14.3586C39.7212 15.0906 40.3147 15.6841 41.0467 15.6841H44.5404L34.8072 25.4152C34.5461 25.6764 34.2043 25.8249 33.8664 25.8249C33.8593 25.8249 33.8521 25.8249 33.845 25.8247C33.5195 25.8186 33.1869 25.6694 32.9327 25.4152L31.3742 23.8567C30.6113 23.0938 29.5985 22.6515 28.5953 22.6433C28.5855 22.6432 28.5758 22.6432 28.5661 22.6432C27.5278 22.6432 26.4909 23.0971 25.716 23.8916L22.8754 26.745C22.3589 27.2638 22.3608 28.1031 22.8796 28.6196C23.1382 28.8771 23.4765 29.0057 23.8147 29.0057C24.1549 29.0057 24.4951 28.8755 24.7541 28.6153L27.5999 25.7568C27.6038 25.753 27.6076 25.749 27.6115 25.7451C27.8882 25.46 28.249 25.291 28.5736 25.2942C28.8824 25.2968 29.2287 25.4601 29.4998 25.7312L31.0582 27.2897C31.8037 28.0352 32.7759 28.4563 33.7957 28.4753C34.8561 28.4952 35.9089 28.063 36.6819 27.2898L46.3489 17.6248V20.92C46.3489 21.652 46.9424 22.2455 47.6744 22.2455C48.4065 22.2455 49 21.652 49 20.92V17.0096C49 14.817 47.2161 13.033 45.0233 13.033Z" fill="white"/>
<path d="M18.9148 38.6159C18.181 38.6134 17.5847 39.2076 17.5847 39.9415V45.6412C17.5847 46.3732 18.1782 46.9668 18.9103 46.9668H18.9103C19.6424 46.9668 20.2359 46.3733 20.2359 45.6412V39.9415C20.2358 39.2111 19.6452 38.6184 18.9148 38.6159Z" fill="white"/>
<path d="M44.9571 24.3664C44.2251 24.3664 43.6316 24.9599 43.6316 25.6919V45.6413C43.6316 46.3733 44.2251 46.9669 44.9571 46.9669H44.9572C45.6892 46.9669 46.2827 46.3734 46.2827 45.6413V25.6919C46.2827 24.9598 45.6893 24.3664 44.9571 24.3664Z" fill="white"/>
<path d="M34.4852 31.3917C33.7531 31.3917 33.1597 31.9852 33.1597 32.7173V45.6413C33.1597 46.3733 33.7531 46.9668 34.4852 46.9668H34.4853C35.2173 46.9668 35.8108 46.3733 35.8108 45.6413V32.7173C35.8107 31.9852 35.2173 31.3917 34.4852 31.3917Z" fill="white"/>
<path d="M39.7164 28.8732C38.9862 28.8758 38.3958 29.4686 38.3958 30.1987V45.6413C38.3958 46.3733 38.9892 46.9669 39.7213 46.9669H39.7214C40.4534 46.9669 41.0469 46.3734 41.0469 45.6413V30.1987C41.0468 29.4647 40.4504 28.8705 39.7164 28.8732Z" fill="white"/>
</g>
<defs>
<linearGradient id="paint0_linear" x1="3.2" y1="64" x2="59.8154" y2="64" gradientUnits="userSpaceOnUse">
<stop offset="0.222113" stop-color="#FF6A1C"/>
<stop offset="1" stop-color="#FD9100"/>
</linearGradient>
<clipPath id="clip0">
<rect width="34" height="34" fill="white" transform="translate(15 13)"/>
</clipPath>
</defs>
</svg>
