<svg width="74" height="73" viewBox="0 0 74 73" fill="none" xmlns="http://www.w3.org/2000/svg">
<rect opacity="0.5" x="10" y="9" width="64" height="64" rx="8" fill="#E1E3E6"/>
<rect width="64" height="64" rx="8" fill="url(#paint0_linear)"/>
<path d="M42.3049 37.0321C41.7876 36.5121 40.9467 36.5099 40.4267 37.0271C39.9067 37.5444 39.9044 38.3853 40.4217 38.9054L42.4429 40.9373C42.4467 40.9411 42.4504 40.9448 42.4542 40.9485C42.6928 41.1828 42.8242 41.4923 42.8242 41.8203C42.8242 42.1482 42.6928 42.4578 42.4542 42.692C42.4504 42.6958 42.4466 42.6995 42.4429 42.7032L40.4217 44.7352C39.9044 45.2552 39.9066 46.0961 40.4266 46.6134C40.6858 46.8711 41.0245 46.9999 41.3632 46.9999C41.7043 46.9999 42.0454 46.8693 42.3049 46.6084L44.321 44.5815C45.0688 43.8445 45.4805 42.8642 45.4805 41.8203C45.4805 40.7763 45.0688 39.7961 44.3211 39.0589L42.3049 37.0321Z" fill="white"/>
<path d="M21.6287 22.968C21.8883 23.229 22.2292 23.3596 22.5703 23.3596C22.909 23.3596 23.2479 23.2308 23.5069 22.9731C24.0269 22.4558 24.0292 21.6149 23.5119 21.0948L21.4907 19.0628C21.487 19.059 21.4832 19.0553 21.4795 19.0516C21.2408 18.8174 21.1094 18.5078 21.1094 18.1798C21.1094 17.8518 21.2408 17.5422 21.4795 17.308C21.4832 17.3043 21.487 17.3006 21.4907 17.2969L23.512 15.2649C24.0293 14.7449 24.027 13.904 23.507 13.3867C22.9869 12.8694 22.146 12.8715 21.6287 13.3916L19.6125 15.4185C18.8648 16.1556 18.4531 17.1359 18.4531 18.1798C18.4531 19.2237 18.8648 20.204 19.6125 20.9411L21.6287 22.968Z" fill="white"/>
<path d="M37.9102 13C31.7952 13 26.8203 17.9749 26.8203 24.0898C26.8203 24.3425 26.8298 24.5949 26.8469 24.8467C26.5967 24.8297 26.3443 24.8203 26.0898 24.8203C19.9749 24.8203 15 29.7952 15 35.9102C15 42.0251 19.9749 47 26.0898 47C27.8995 47 29.6958 46.554 31.2847 45.7102C31.9325 45.3661 32.1788 44.5621 31.8348 43.9143C31.4908 43.2666 30.6867 43.0203 30.039 43.3643C28.8322 44.0051 27.4667 44.3438 26.0898 44.3438C21.4395 44.3438 17.6562 40.5605 17.6562 35.9102C17.6562 31.2599 21.4395 27.4766 26.0898 27.4766C30.7401 27.4766 34.5234 31.2599 34.5234 35.9102C34.5234 37.0996 34.2812 38.2487 33.8035 39.3258C33.506 39.9963 33.8085 40.7809 34.479 41.0784C35.1495 41.3757 35.9342 41.0733 36.2316 40.4028C36.8607 38.9845 37.1797 37.4729 37.1797 35.9102C37.1797 33.51 36.413 31.2858 35.1121 29.4688H40.4336C41.1671 29.4688 41.7617 28.8741 41.7617 28.1406C41.7617 27.4071 41.1671 26.8125 40.4336 26.8125H37.9446C38.0677 26.4013 38.1529 25.9174 38.1715 25.3516H38.707C39.4406 25.3516 40.0352 24.757 40.0352 24.0234C40.0352 23.2899 39.4406 22.6953 38.707 22.6953H37.8564C37.8102 22.3628 37.7773 22.0137 37.7773 21.6328C37.7773 21.3997 37.9578 21.224 38.1972 21.224H39.8379C40.5715 21.224 41.1661 20.6294 41.1661 19.8959C41.1661 19.1624 40.5715 18.5678 39.8379 18.5678H38.1972C36.501 18.5678 35.1211 19.9428 35.1211 21.6328C35.1211 22.0206 35.1461 22.3794 35.1826 22.7126C34.5463 22.8111 34.0586 23.3596 34.0586 24.0234C34.0586 24.757 34.6532 25.3516 35.3867 25.3516H35.5134C35.4593 26.3788 35.0554 26.7072 34.8956 26.7464C34.5217 26.7536 34.1866 26.9162 33.9496 27.1713C33.7833 27.3267 33.6562 27.5233 33.5869 27.746C32.444 26.6956 31.0807 25.8816 29.5753 25.382C29.51 24.9562 29.4766 24.5235 29.4766 24.0898C29.4766 19.4395 33.2599 15.6562 37.9102 15.6562C42.5605 15.6562 46.3438 19.4395 46.3438 24.0898C46.3438 27.7694 43.9922 30.997 40.4923 32.1211C39.7939 32.3455 39.4096 33.0935 39.6339 33.7918C39.8149 34.3552 40.3366 34.7141 40.8982 34.7141C41.0327 34.7141 41.1696 34.6935 41.3046 34.6502C43.5232 33.9376 45.4325 32.5667 46.8259 30.6859C48.2482 28.7662 49 26.4854 49 24.0898C49 17.9749 44.0251 13 37.9102 13Z" fill="white"/>
<path d="M26.0899 42.5508C26.8234 42.5508 27.418 41.9562 27.418 41.2227V40.9961C28.7522 40.6599 29.7423 39.457 29.7423 38.0285V37.4962C29.7423 35.8119 28.3599 34.4415 26.6609 34.4415H25.7773C25.5537 34.4415 25.3575 34.2279 25.3575 33.9844V33.9283C25.3575 33.6952 25.5379 33.5195 25.7773 33.5195H27.418C28.1516 33.5195 28.7462 32.9249 28.7462 32.1914C28.7462 31.4579 28.1516 30.8633 27.418 30.8633V30.6641C27.418 29.9305 26.8234 29.3359 26.0899 29.3359C25.3564 29.3359 24.7618 29.9305 24.7618 30.6641V31.0357C23.5632 31.4546 22.7012 32.5928 22.7012 33.9283V33.9844C22.7012 35.7011 24.0811 37.0978 25.7772 37.0978H26.6608C26.9032 37.0978 27.0859 37.2691 27.0859 37.4962V38.0285C27.0859 38.2594 26.9032 38.4336 26.6608 38.4336H23.9648C23.2313 38.4336 22.6367 39.0282 22.6367 39.7617C22.6367 40.4952 23.2313 41.0898 23.9648 41.0898H24.7617V41.2227C24.7617 41.9562 25.3564 42.5508 26.0899 42.5508Z" fill="white"/>
<defs>
<linearGradient id="paint0_linear" x1="3.2" y1="64" x2="59.8154" y2="64" gradientUnits="userSpaceOnUse">
<stop offset="0.222113" stop-color="#FF6A1C"/>
<stop offset="1" stop-color="#FD9100"/>
</linearGradient>
</defs>
</svg>
