<svg width="74" height="73" viewBox="0 0 74 73" fill="none" xmlns="http://www.w3.org/2000/svg">
<rect opacity="0.5" x="10" y="9" width="64" height="64" rx="8" fill="#E1E3E6"/>
<rect width="64" height="64" rx="8" fill="url(#paint0_linear)"/>
<g clip-path="url(#clip0)">
<path d="M46.0583 19.1451L32.4716 13.1139C32.1277 12.9612 31.735 12.9619 31.3916 13.1159L17.9374 19.1471C17.4608 19.3608 17.1541 19.8344 17.1541 20.3566V30.8283C17.1541 34.7859 18.718 38.8314 21.4449 41.9276C22.8165 43.485 24.3977 44.7173 26.1447 45.5905C28.016 46.5257 29.986 46.9999 32.0001 46.9999C34.8203 46.9999 37.5651 46.0871 39.938 44.3602C40.53 43.9294 40.6606 43.1004 40.2298 42.5084C39.799 41.9165 38.9699 41.7859 38.378 42.2167C36.4614 43.6116 34.256 44.3489 32.0002 44.3489C25.6178 44.3489 19.8053 37.9045 19.8053 30.8284V21.215L31.9365 15.7769L44.1951 21.2185V30.8283C44.1951 33.2692 43.4939 35.7395 42.1672 37.9718C41.7932 38.6011 42.0002 39.4145 42.6295 39.7885C43.259 40.1626 44.0723 39.9556 44.4463 39.3262C46.0163 36.6842 46.8461 33.7458 46.8461 30.8284V20.3566C46.8461 19.8326 46.5374 19.3577 46.0583 19.1451Z" fill="white"/>
<path d="M37.8815 24.2207L31.3478 33.347C31.1694 33.554 30.9459 33.5987 30.826 33.6066C30.7028 33.6148 30.4667 33.5991 30.2584 33.404L26.0357 29.2832C25.5118 28.7719 24.6725 28.7821 24.1613 29.3061C23.65 29.83 23.6602 30.6692 24.1842 31.1805L28.4141 35.3083C28.418 35.3122 28.422 35.316 28.4259 35.3198C29.0601 35.9235 29.9065 36.2592 30.7775 36.2592C30.8522 36.2593 30.9274 36.2568 31.0024 36.2518C31.951 36.1886 32.8367 35.7272 33.4322 34.986C33.4476 34.9669 33.4625 34.9473 33.4768 34.9273L40.037 25.7639C40.4631 25.1686 40.326 24.3406 39.7308 23.9145C39.1356 23.4883 38.3075 23.6254 37.8815 24.2207Z" fill="white"/>
</g>
<defs>
<linearGradient id="paint0_linear" x1="3.2" y1="64" x2="59.8154" y2="64" gradientUnits="userSpaceOnUse">
<stop offset="0.222113" stop-color="#FF6A1C"/>
<stop offset="1" stop-color="#FD9100"/>
</linearGradient>
<clipPath id="clip0">
<rect width="34" height="34" fill="white" transform="translate(15 13)"/>
</clipPath>
</defs>
</svg>
