<svg width="74" height="73" viewBox="0 0 74 73" fill="none" xmlns="http://www.w3.org/2000/svg">
<rect opacity="0.5" x="10" y="9" width="64" height="64" rx="8" fill="#E1E3E6"/>
<rect width="64" height="64" rx="8" fill="url(#paint0_linear)"/>
<g clip-path="url(#clip0)">
<path d="M17.9953 35.6565C17.1959 39.2855 17.8135 42.3426 19.7351 44.2639C21.7782 46.307 24.6417 46.4846 26.6844 46.2738C27.4136 46.199 28.0665 46.7287 28.1417 47.4584C28.2172 48.1879 27.6868 48.8403 26.9573 48.9157C26.4266 48.9705 25.9057 48.9977 25.3968 48.9977C24.1867 48.9977 23.0414 48.8434 21.9771 48.5355C20.3652 48.0693 18.979 47.2641 17.8568 46.142C16.5305 44.8157 15.653 43.135 15.2488 41.1465C14.8722 39.2941 14.9235 37.2547 15.4016 35.0851C15.6281 34.0579 15.9458 33.0257 16.3471 31.999C15.9458 30.9723 15.6281 29.9399 15.4016 28.9129C14.9235 26.7431 14.8722 24.7039 15.2488 22.8513C15.653 20.863 16.5305 19.1821 17.8568 17.8558C18.9626 16.7499 20.326 15.9513 21.9092 15.4823C23.3953 15.0418 25.0424 14.9022 26.8045 15.0672C27.5348 15.1354 28.0712 15.7829 28.003 16.5131C27.9347 17.2433 27.2873 17.7798 26.5571 17.7115C24.5545 17.524 21.746 17.723 19.7351 19.7338C17.8135 21.6555 17.1959 24.7122 17.9956 28.3412C18.0091 28.4024 18.0239 28.4639 18.0381 28.5251C19.2537 26.4481 20.801 24.4487 22.6254 22.6243C23.7185 21.5315 24.8889 20.525 26.1047 19.6324C26.6959 19.1984 27.527 19.326 27.9609 19.9172C28.3949 20.5084 28.2676 21.3395 27.6764 21.7735C26.569 22.5864 25.5016 23.5047 24.5037 24.5024C22.2129 26.7931 20.4083 29.3697 19.2252 31.999C20.4083 34.628 22.2129 37.2046 24.5037 39.4954C25.4837 40.4754 26.5314 41.3789 27.6172 42.181C28.2074 42.6165 28.3324 43.4479 27.8966 44.038C27.6364 44.3908 27.2346 44.5773 26.8274 44.5773C26.5534 44.5773 26.2769 44.4927 26.0396 44.3174C24.8476 43.4372 23.699 42.4468 22.6256 41.3734C20.8013 39.5491 19.2537 37.5496 18.0384 35.4726C18.0239 35.5338 18.0088 35.5953 17.9953 35.6565ZM47.653 31.9987C48.0543 30.972 48.3721 29.9399 48.5985 28.9127C49.0766 26.7431 49.1282 24.7037 48.7516 22.8513C48.3471 20.8627 47.4696 19.1821 46.1433 17.8558C45.0375 16.7499 43.6741 15.9513 42.0912 15.4823C40.6051 15.0418 38.9582 14.9022 37.1958 15.0672C36.4654 15.1354 35.9289 15.7829 35.9971 16.5131C36.0654 17.2433 36.7133 17.7803 37.443 17.7115C39.4456 17.5243 42.2544 17.723 44.2652 19.7338C46.1866 21.6555 46.8045 24.7122 46.0048 28.3412C45.991 28.4024 45.9762 28.4639 45.962 28.5254C44.7464 26.4484 43.1991 24.4487 41.3745 22.6243C40.2819 21.5315 39.1112 20.525 37.8957 19.6327C37.3043 19.1984 36.4734 19.326 36.0392 19.9172C35.6052 20.5084 35.7326 21.3395 36.3237 21.7737C37.4314 22.5867 38.4988 23.5047 39.4964 24.5026C41.7872 26.7934 43.5918 29.37 44.7752 31.999C43.5918 34.628 41.7872 37.2046 39.4964 39.4954C38.5208 40.471 37.4783 41.3708 36.3977 42.1701C35.8078 42.6061 35.6833 43.4375 36.1196 44.0274C36.38 44.3796 36.7816 44.5659 37.1883 44.5659C37.4627 44.5659 37.7393 44.481 37.9769 44.3054C39.1631 43.4284 40.3063 42.4419 41.3745 41.3737C43.1991 39.5491 44.7464 37.5496 45.962 35.4726C45.9762 35.5341 45.991 35.5953 46.0045 35.6568C46.8042 39.2858 46.1866 42.3426 44.265 44.2639C42.1887 46.3404 39.2679 46.4953 37.1831 46.2595C36.4542 46.1765 35.7966 46.701 35.7144 47.4296C35.6319 48.1586 36.1556 48.8161 36.8845 48.8986C37.4617 48.964 38.0269 48.9962 38.5795 48.9962C41.6329 48.9962 44.2772 48.0084 46.1433 46.1422C47.4696 44.8159 48.3471 43.135 48.7513 41.1467C49.1279 39.2944 49.0766 37.2547 48.5982 35.0851C48.3721 34.0579 48.054 33.0257 47.653 31.9987ZM32.0078 44.3495C31.2745 44.3495 30.6797 44.9441 30.6797 45.6774C30.6797 46.411 31.2745 47.0055 32.0078 47.0055C32.7414 47.0055 33.336 46.411 33.336 45.6774C33.336 44.9441 32.7414 44.3495 32.0078 44.3495ZM32.0742 19.3829C32.8078 19.3829 33.4024 18.7883 33.4024 18.0547C33.4024 17.3214 32.8078 16.7269 32.0742 16.7269C31.3409 16.7269 30.7461 17.3214 30.7461 18.0547C30.7461 18.7883 31.3409 19.3829 32.0742 19.3829ZM36.4034 33.2636C35.8262 34.2311 35.3279 35.0669 35.3279 35.9465V37.5891C35.3279 38.809 34.475 39.8329 33.3341 40.0985C33.2965 40.8017 32.653 41.3615 31.9414 41.3615C31.2309 41.3615 30.7147 40.803 30.6828 40.1016C29.5422 39.8409 28.6878 38.8137 28.6878 37.5891V35.9465C28.6878 35.0161 28.1098 34.0688 27.4977 33.0659C26.7589 31.8553 25.9231 30.4857 25.8995 28.8048C25.8992 28.7923 25.899 28.7799 25.899 28.7674V28.7316C25.899 28.7207 25.8992 28.7098 25.8995 28.6989C25.9179 27.0875 26.5965 25.6816 27.8146 24.7332C28.907 23.8827 30.3544 23.4331 32.0001 23.4331C35.5543 23.4331 37.9504 25.5472 37.9836 28.701C37.9839 28.7111 37.9839 28.7215 37.9839 28.7316V28.7674C37.9839 28.7778 37.9839 28.7879 37.9836 28.7983C37.9642 30.6462 37.1356 32.0358 36.4034 33.2636ZM31.3438 36.1821V37.5102H32.6719V36.1821H31.3438ZM35.3279 28.7492C35.3162 26.3488 32.998 26.0891 32.0001 26.0891C30.3399 26.0891 28.5666 26.7882 28.555 28.7482C28.5617 29.7106 29.1461 30.6683 29.7648 31.6823C30.115 32.2558 30.4867 32.8654 30.7817 33.5261H33.2387C33.5009 32.9453 33.8205 32.4091 34.1222 31.903C34.7658 30.8237 35.3222 29.8909 35.3279 28.7492Z" fill="white"/>
</g>
<defs>
<linearGradient id="paint0_linear" x1="3.2" y1="64" x2="59.8154" y2="64" gradientUnits="userSpaceOnUse">
<stop offset="0.222113" stop-color="#FF6A1C"/>
<stop offset="1" stop-color="#FD9100"/>
</linearGradient>
<clipPath id="clip0">
<rect width="34" height="34" fill="white" transform="translate(15 15)"/>
</clipPath>
</defs>
</svg>
