<svg width="74" height="73" viewBox="0 0 74 73" fill="none" xmlns="http://www.w3.org/2000/svg">
<rect opacity="0.5" x="10" y="9" width="64" height="64" rx="8" fill="#E1E3E6"/>
<rect width="64" height="64" rx="8" fill="url(#paint0_linear)"/>
<g clip-path="url(#clip0)">
<g clip-path="url(#clip1)">
<path d="M27.4144 26.2816V26.348V30.2656V30.332C27.4144 31.0655 28.009 31.66 28.7424 31.66C29.4759 31.66 30.0704 31.0655 30.0704 30.332V30.2656V26.3481V26.2817C30.0704 25.5482 29.4759 24.9537 28.7424 24.9537C28.009 24.9536 27.4144 25.5481 27.4144 26.2816Z" fill="white"/>
<path d="M47.6651 39.3608C47.625 39.2692 47.5748 39.1824 47.5153 39.1021L44.577 35.1354C44.3773 34.6545 43.9035 34.3161 43.3504 34.3161H19.9776V20.3721C19.9776 18.9076 21.169 17.7161 22.6336 17.7161H39.3663C40.8309 17.7161 42.0223 18.9076 42.0223 20.3721V29.0041C42.0223 29.7376 42.6168 30.3321 43.3503 30.3321C44.0838 30.3321 44.6783 29.7376 44.6783 29.0041V20.372C44.6783 17.443 42.2953 15.06 39.3663 15.06H22.6336C19.7046 15.06 17.3216 17.443 17.3216 20.372V35.2722L14.4846 39.102C14.4251 39.1824 14.3749 39.2692 14.3349 39.3608C13.7948 40.5968 13.9133 42.0086 14.6519 43.1374C15.3904 44.2661 16.6367 44.94 17.9856 44.94H44.0144C45.3633 44.94 46.6095 44.2662 47.3481 43.1374C48.0867 42.0086 48.2052 40.5969 47.6651 39.3608ZM45.1257 41.6831C44.8758 42.065 44.4708 42.284 44.0144 42.284H35.648C35.648 41.5505 35.0534 40.956 34.32 40.956H27.68C26.9465 40.956 26.352 41.5505 26.352 42.284H17.9856C17.5292 42.284 17.1242 42.065 16.8743 41.6831C16.6477 41.3367 16.5949 40.927 16.7235 40.5418L19.3185 37.0383H42.6815L45.2766 40.5418C45.405 40.927 45.3523 41.3368 45.1257 41.6831Z" fill="white"/>
<path d="M22.7664 24.9535V25.0199V30.2656V30.332C22.7664 31.0654 23.3609 31.66 24.0943 31.66C24.8278 31.66 25.4223 31.0654 25.4223 30.332V30.2656V25.0199V24.9535C25.4223 24.2201 24.8278 23.6255 24.0943 23.6255C23.3609 23.6255 22.7664 24.2201 22.7664 24.9535Z" fill="white"/>
<path d="M32.0624 21.6337V21.7001V30.2657V30.3321C32.0624 31.0655 32.6569 31.6601 33.3904 31.6601C34.1238 31.6601 34.7184 31.0655 34.7184 30.3321V30.2657V21.7001V21.6337C34.7184 20.9002 34.1238 20.3057 33.3904 20.3057C32.6569 20.3056 32.0624 20.9002 32.0624 21.6337Z" fill="white"/>
<path d="M36.7104 28.34V28.4064V30.2655V30.3319C36.7104 31.0654 37.305 31.6599 38.0384 31.6599C38.7719 31.6599 39.3664 31.0654 39.3664 30.3319V30.2655V28.4064V28.34C39.3664 27.6065 38.7719 27.012 38.0384 27.012C37.305 27.012 36.7104 27.6065 36.7104 28.34Z" fill="white"/>
</g>
</g>
<defs>
<linearGradient id="paint0_linear" x1="3.2" y1="64" x2="59.8154" y2="64" gradientUnits="userSpaceOnUse">
<stop offset="0.222113" stop-color="#FF6A1C"/>
<stop offset="1" stop-color="#FD9100"/>
</linearGradient>
<clipPath id="clip0">
<rect width="34" height="34" fill="white" transform="translate(15 13)"/>
</clipPath>
<clipPath id="clip1">
<rect width="34" height="34" fill="white" transform="translate(14 13)"/>
</clipPath>
</defs>
</svg>
